<?xml version="1.0" encoding="UTF-8"?>
<svg version="1.1" xmlns="http://www.w3.org/2000/svg" width="301" height="320">
<path d="M0 0 C99.33 0 198.66 0 301 0 C301 105.6 301 211.2 301 320 C201.67 320 102.34 320 0 320 C0 214.4 0 108.8 0 0 Z " fill="#FBFBFB" transform="translate(0,0)"/>
<path d="M0 0 C0 54.78 0 109.56 0 166 C3.49343636 164.83552121 3.68364758 164.28463758 5.5 161.25 C19.79471119 139.08437376 41.43587509 124.34277101 67 118 C75.86922823 116.6518438 84.77633884 116.87357798 93.72265625 116.90234375 C95.43615172 116.90421168 97.14964772 116.90563381 98.86314392 116.90663147 C103.34619656 116.91042716 107.82921616 116.92023188 112.31225586 116.93133545 C116.89761915 116.94161334 121.48298785 116.94614269 126.06835938 116.95117188 C135.04558733 116.96185713 144.02279091 116.97889765 153 117 C153.01206433 119.56528113 153.02087812 122.1305049 153.02783203 124.69580078 C153.03156326 125.41814407 153.03529449 126.14048737 153.03913879 126.88471985 C153.04950432 131.98546788 152.79560525 136.8628844 151.875 141.875 C151.74448242 142.61129639 151.61396484 143.34759277 151.47949219 144.10620117 C145.85960948 173.50466742 128.46030823 199.60026028 103.859375 216.63745117 C100.61749066 218.8304179 97.32321676 220.93276975 94 223 C93.39236816 223.37866211 92.78473633 223.75732422 92.15869141 224.14746094 C68.65804285 238.47665704 37.01235152 241.00463503 10.45703125 234.89453125 C9.31621094 234.59933594 8.17539063 234.30414063 7 234 C5.99324219 233.75636719 4.98648438 233.51273438 3.94921875 233.26171875 C-14.21603532 228.07515771 -30.46635271 215.73755039 -44 203 C-44.72703125 202.360625 -45.4540625 201.72125 -46.203125 201.0625 C-59.54703863 188.77457954 -68.52496058 171.6586528 -73.75 154.5 C-73.94907959 153.84829834 -74.14815918 153.19659668 -74.35327148 152.52514648 C-77.47640566 141.57339174 -78.36592913 130.53411951 -78.3125 119.1875 C-78.30831055 117.96281006 -78.30412109 116.73812012 -78.29980469 115.47631836 C-78.18544329 106.28908334 -77.377231 97.88117036 -75 89 C-74.73316406 87.93910156 -74.46632812 86.87820312 -74.19140625 85.78515625 C-64.06141676 49.36221628 -39.2406798 22.34264849 -7.01171875 3.7421875 C-0.5426009 0 -0.5426009 0 0 0 Z " fill="#249BFB" transform="translate(115,45)"/>
<path d="M0 0 C0 54.78 0 109.56 0 166 C3.49343636 164.83552121 3.68364758 164.28463758 5.5 161.25 C15.20398931 146.20282645 29.72494036 130.55528521 47.41015625 125.28125 C47.93480469 125.1884375 48.45945312 125.095625 49 125 C49 125.66 49 126.32 49 127 C48.32453125 127.32613281 47.6490625 127.65226562 46.953125 127.98828125 C46.06109375 128.42527344 45.1690625 128.86226562 44.25 129.3125 C43.36828125 129.74175781 42.4865625 130.17101562 41.578125 130.61328125 C39.16120014 131.91329386 37.06489682 133.19321529 35 135 C34.9175 135.763125 34.835 136.52625 34.75 137.3125 C33.66660888 141.19465153 31.14399584 142.44360359 27.91015625 144.66796875 C25.88777204 145.99519842 25.88777204 145.99519842 24 148 C23.67 147.67 23.34 147.34 23 147 C20.32032665 149.12999677 18.27786209 150.80707327 17.48046875 154.23046875 C17.33050459 155.78857091 17.21533237 157.35054391 17.140625 158.9140625 C17 161 17 161 16 164 C23.67612915 165.01696949 31.26641525 165.21426146 39.00390625 165.31640625 C40.32293442 165.33718735 41.64196259 165.35796844 43.0009613 165.37937927 C46.47782612 165.4341089 49.95474505 165.48373093 53.43170166 165.53222656 C56.9916251 165.58280438 60.55147169 165.63829945 64.11132812 165.69335938 C71.07415192 165.80033854 78.03704541 165.90191267 85 166 C85 166.33 85 166.66 85 167 C56.95 167.33 28.9 167.66 0 168 C-0.495 170.97 -0.495 170.97 -1 174 C4.61 174 10.22 174 16 174 C16 174.33 16 174.66 16 175 C10.06 175 4.12 175 -2 175 C-2.33 174.01 -2.66 173.02 -3 172 C-5.80232125 172.35180656 -6.7935861 172.7521058 -8.6328125 174.9609375 C-9.12523438 175.75757813 -9.61765625 176.55421875 -10.125 177.375 C-10.62257813 178.16648438 -11.12015625 178.95796875 -11.6328125 179.7734375 C-12.30957031 180.87558594 -12.30957031 180.87558594 -13 182 C-13.66 182.99 -14.32 183.98 -15 185 C-15.33 185.66 -15.66 186.32 -16 187 C-16.8971875 187.37125 -16.8971875 187.37125 -17.8125 187.75 C-21.97079036 190.12616592 -24.03888181 194.75091058 -26 199 C-26.99 198.67 -27.98 198.34 -29 198 C-31.15305957 201.85756507 -32.39253254 204.55129785 -32 209 C-29.24075815 210.80411967 -28.11027897 211.0127245 -24.75 210.625 C-23.8425 210.41875 -22.935 210.2125 -22 210 C-22.3403125 211.3921875 -22.3403125 211.3921875 -22.6875 212.8125 C-23.31684251 215.87905296 -23.31684251 215.87905296 -21.9375 217.6875 C-19.40891533 219.40041219 -16.76463187 220.70983846 -14 222 C-13.67 221.34 -13.34 220.68 -13 220 C-9.7 220.66 -6.4 221.32 -3 222 C-3.04125 222.94875 -3.0825 223.8975 -3.125 224.875 C-3.34973818 228.10244856 -3.34973818 228.10244856 -1 230 C-5.9280903 229.3912359 -9.81505124 227.25297919 -14.125 224.9375 C-14.87982666 224.53337891 -15.63465332 224.12925781 -16.41235352 223.71289062 C-26.73396593 218.079915 -35.45645018 211.04098806 -44 203 C-44.72703125 202.360625 -45.4540625 201.72125 -46.203125 201.0625 C-59.54703863 188.77457954 -68.52496058 171.6586528 -73.75 154.5 C-73.94907959 153.84829834 -74.14815918 153.19659668 -74.35327148 152.52514648 C-77.47640566 141.57339174 -78.36592913 130.53411951 -78.3125 119.1875 C-78.30831055 117.96281006 -78.30412109 116.73812012 -78.29980469 115.47631836 C-78.18544329 106.28908334 -77.377231 97.88117036 -75 89 C-74.73316406 87.93910156 -74.46632812 86.87820312 -74.19140625 85.78515625 C-64.06141676 49.36221628 -39.2406798 22.34264849 -7.01171875 3.7421875 C-0.5426009 0 -0.5426009 0 0 0 Z " fill="#198BF8" transform="translate(115,45)"/>
<path d="M0 0 C2.0625 0.4375 2.0625 0.4375 4 1 C4.495 3.97 4.495 3.97 5 7 C5.77923828 6.22462891 5.77923828 6.22462891 6.57421875 5.43359375 C7.27160156 4.77488281 7.96898437 4.11617188 8.6875 3.4375 C9.37199219 2.77621094 10.05648437 2.11492187 10.76171875 1.43359375 C13 0 13 0 15.76953125 0.28515625 C16.50558594 0.52105469 17.24164063 0.75695312 18 1 C17.38169051 6.02474293 15.87023224 10.24720494 13.9375 14.875 C13.65583984 15.56335938 13.37417969 16.25171875 13.08398438 16.9609375 C12.39484734 18.64289909 11.69819202 20.32177697 11 22 C13.475 22.99 13.475 22.99 16 24 C15.505 25.485 15.505 25.485 15 27 C12.03 27 9.06 27 6 27 C4 23 4 23 4.6796875 20.203125 C5.27136719 18.74132812 5.27136719 18.74132812 5.875 17.25 C6.26429688 16.26515625 6.65359375 15.2803125 7.0546875 14.265625 C7.36664063 13.51796875 7.67859375 12.7703125 8 12 C7.01 12.99 6.02 13.98 5 15 C4.01 14.67 3.02 14.34 2 14 C1.505 13.01 1.505 13.01 1 12 C0.78384033 12.55461914 0.56768066 13.10923828 0.3449707 13.68066406 C-0.65074729 16.21002578 -1.66881469 18.72980547 -2.6875 21.25 C-3.02716797 22.12269531 -3.36683594 22.99539062 -3.71679688 23.89453125 C-6.07710198 29.67396992 -8.24685148 33.12342574 -14 36 C-18.31147425 36.48809142 -20.29946463 36.50255798 -23.875 33.9375 C-26.34064564 30.52910749 -26.75554295 28.15576993 -27 24 C-27.33 24.495 -27.66 24.99 -28 25.5 C-30.72385491 27.54289118 -32.79081369 27.42834645 -36.125 27.28125 C-38 27 -38 27 -40 25.875 C-41.51152489 23.04089083 -41.4433302 21.1666443 -41 18 C-39.20006226 15.30009338 -37.916227 13.4581135 -35 12 C-30.94857881 11.74139865 -29.45662331 11.69558446 -26 14 C-24.8125 16.125 -24.8125 16.125 -24 18 C-23.071875 17.195625 -22.14375 16.39125 -21.1875 15.5625 C-17.0293933 11.95880753 -13.444822 11.70300971 -8 12 C-7.34 12.66 -6.68 13.32 -6 14 C-5.47599609 12.60974609 -5.47599609 12.60974609 -4.94140625 11.19140625 C-4.48636719 9.99386719 -4.03132813 8.79632813 -3.5625 7.5625 C-3.11003906 6.36753906 -2.65757812 5.17257813 -2.19140625 3.94140625 C-1 1 -1 1 0 0 Z " fill="#121A64" transform="translate(228,91)"/>
<path d="M0 0 C0.33 0 0.66 0 1 0 C1 17.49 1 34.98 1 53 C-14.84 53 -30.68 53 -47 53 C-43.76624482 50.84416321 -40.40510006 49.11056381 -36.9375 47.375 C-35.98133789 46.88773437 -35.98133789 46.88773437 -35.00585938 46.390625 C-30.23967634 44 -30.23967634 44 -28 44 C-28 43.34 -28 42.68 -28 42 C-26.53125 40.5546875 -26.53125 40.5546875 -24.5 38.875 C-11.94921574 28.12035271 -3.69708931 16.45801049 0 0 Z " fill="#B8B1B2" transform="translate(300,267)"/>
<path d="M0 0 C0.66 0 1.32 0 2 0 C2.29132813 0.76183594 2.58265625 1.52367187 2.8828125 2.30859375 C7.43582404 13.77702849 13.53699981 22.0695198 22 31 C22.52335937 31.55300781 23.04671875 32.10601562 23.5859375 32.67578125 C28.40225753 37.186092 35.47470487 39.76552802 41.328125 42.6328125 C44 44 44 44 47 46 C31.49 46 15.98 46 0 46 C0 30.82 0 15.64 0 0 Z " fill="#9E9899" transform="translate(0,274)"/>
<path d="M0 0 C2.13671875 1.84765625 2.13671875 1.84765625 2.671875 4.73046875 C2.03743184 8.42598437 1.02106931 9.90179355 -1.42578125 12.72265625 C-2.2353125 13.65722656 -3.04484375 14.59179688 -3.87890625 15.5546875 C-4.87116404 16.65463485 -5.86621928 17.75206183 -6.86328125 18.84765625 C-7.46849609 19.51845215 -8.07371094 20.18924805 -8.69726562 20.88037109 C-10.67889081 23.06755292 -12.67379579 25.2416021 -14.67578125 27.41015625 C-15.32168213 28.11317871 -15.96758301 28.81620117 -16.63305664 29.54052734 C-17.25172607 30.20004395 -17.87039551 30.85956055 -18.5078125 31.5390625 C-19.33309448 32.42380249 -19.33309448 32.42380249 -20.17504883 33.32641602 C-21.99311199 34.96464473 -23.57834812 35.97372494 -25.86328125 36.84765625 C-28.11328125 35.97265625 -28.11328125 35.97265625 -29.86328125 34.84765625 C-29.82203125 34.08453125 -29.78078125 33.32140625 -29.73828125 32.53515625 C-29.64247301 29.62047209 -29.64247301 29.62047209 -31.86328125 26.84765625 C-32.60852733 18.95681542 -28.58608658 12.17445276 -25.05078125 5.34765625 C-18.78172196 -1.81698294 -8.80542557 -3.54379338 0 0 Z " fill="#4AB0FE" transform="translate(103.86328125,210.15234375)"/>
<path d="M0 0 C12.87 0 25.74 0 39 0 C35 3 35 3 33.16796875 4.078125 C18.86214294 12.54311069 6.93299699 26.13069385 2.36181641 42.25048828 C1.87969371 44.16009698 1.4360297 46.07934236 1 48 C0.67 48 0.34 48 0 48 C0 32.16 0 16.32 0 0 Z " fill="#A29C9C" transform="translate(0,0)"/>
<path d="M0 0 C0.79701828 -0.00175232 1.59403656 -0.00350464 2.41520691 -0.00531006 C5.05148491 -0.00971384 7.68769592 -0.00679603 10.32397461 -0.00341797 C12.15335605 -0.00409136 13.9827374 -0.00506169 15.81211853 -0.00631714 C19.64623873 -0.00779206 23.48033563 -0.0056459 27.31445312 -0.00097656 C32.23651257 0.00472463 37.15851754 0.00143795 42.08057499 -0.00454903 C45.85770582 -0.00815675 49.63482366 -0.00701515 53.41195488 -0.00442123 C55.22729944 -0.00375276 57.04264516 -0.00457763 58.85798836 -0.00690079 C61.3910346 -0.00943118 63.92399167 -0.0055814 66.45703125 0 C67.21188812 -0.00202423 67.966745 -0.00404846 68.74447632 -0.00613403 C73.93528801 0.01512936 73.93528801 0.01512936 76.16381836 1.12939453 C75.28881836 6.00439453 75.28881836 6.00439453 74.16381836 7.12939453 C71.48593862 7.22452397 68.83392967 7.25494732 66.15576172 7.24291992 C65.31680862 7.24306595 64.47785553 7.24321198 63.61347961 7.24336243 C60.82684792 7.24266303 58.0402822 7.23486938 55.25366211 7.22705078 C53.32695044 7.2251867 51.40023831 7.22376275 49.473526 7.22276306 C44.39194439 7.21893712 39.31039116 7.20910619 34.2288208 7.19805908 C29.04765202 7.1878466 23.86647867 7.18326579 18.68530273 7.17822266 C8.51146211 7.16748399 -1.66235741 7.15040666 -11.83618164 7.12939453 C-11.50618164 5.14939453 -11.17618164 3.16939453 -10.83618164 1.12939453 C-7.17529147 -0.09090219 -3.81112202 -0.01024742 0 0 Z " fill="#F2FCFE" transform="translate(125.836181640625,211.87060546875)"/>
<path d="M0 0 C2.27024968 -0.08097324 4.54132075 -0.13917704 6.8125 -0.1875 C8.07707031 -0.22230469 9.34164062 -0.25710937 10.64453125 -0.29296875 C14 0 14 0 15.91796875 1.328125 C17.66387108 4.0257647 17.50990667 5.87682164 17 9 C14.9375 11.375 14.9375 11.375 12 13 C8.1875 13.25 8.1875 13.25 5 13 C4.87882812 13.70253906 4.75765625 14.40507813 4.6328125 15.12890625 C2.96743032 22.68480689 0.23574281 30.36210637 -6.171875 35.0703125 C-9.32450583 36.67357348 -11.56985659 36.63521174 -15 36 C-17.93063678 34.47097212 -19.53477392 33.34973 -20.6328125 30.1640625 C-21.5088837 25.29907137 -20.85808454 22.1488324 -18 18 C-13.79018579 13.48948478 -10.87999242 12.41676521 -4.7578125 12.04296875 C-4.17773438 12.02878906 -3.59765625 12.01460937 -3 12 C-2.67 13.65 -2.34 15.3 -2 17 C-2.61488281 17.17015625 -3.22976562 17.3403125 -3.86328125 17.515625 C-8.82903377 18.96837756 -8.82903377 18.96837756 -13.0625 21.8125 C-14.2757829 24.64349343 -14.20768405 26.95396725 -14 30 C-12.35 30.33 -10.7 30.66 -9 31 C-5.07034188 25.2739553 -2.46432291 19.54398107 -0.1875 13 C0.12380859 12.12988281 0.43511719 11.25976562 0.75585938 10.36328125 C1.51237865 8.24502729 2.26020653 6.12414041 3 4 C1.68 4 0.36 4 -1 4 C-0.67 2.68 -0.34 1.36 0 0 Z " fill="#101863" transform="translate(157,91)"/>
<path d="M0 0 C0 0.66 0 1.32 0 2 C-1.01320313 2.48919922 -1.01320313 2.48919922 -2.046875 2.98828125 C-2.93890625 3.42527344 -3.8309375 3.86226562 -4.75 4.3125 C-5.63171875 4.74175781 -6.5134375 5.17101562 -7.421875 5.61328125 C-9.83879986 6.91329386 -11.93510318 8.19321529 -14 10 C-14.0825 10.763125 -14.165 11.52625 -14.25 12.3125 C-15.33339112 16.19465153 -17.85600416 17.44360359 -21.08984375 19.66796875 C-23.11222796 20.99519842 -23.11222796 20.99519842 -25 23 C-25.33 22.67 -25.66 22.34 -26 22 C-28.67967335 24.12999677 -30.72213791 25.80707327 -31.51953125 29.23046875 C-31.66949541 30.78857091 -31.78466763 32.35054391 -31.859375 33.9140625 C-32 36 -32 36 -33 39 C-25.32387085 40.01696949 -17.73358475 40.21426146 -9.99609375 40.31640625 C-8.67706558 40.33718735 -7.35803741 40.35796844 -5.9990387 40.37937927 C-2.52217388 40.4341089 0.95474505 40.48373093 4.43170166 40.53222656 C7.9916251 40.58280438 11.55147169 40.63829945 15.11132812 40.69335938 C22.07415192 40.80033854 29.03704541 40.90191267 36 41 C36 41.33 36 41.66 36 42 C7.95 42.33 -20.1 42.66 -49 43 C-47.02 40.525 -47.02 40.525 -45 38 C-43.57852961 36.08689324 -42.16209236 34.17003925 -40.75 32.25 C-32.61189744 21.41689774 -15.45536026 0 0 0 Z " fill="#1372DC" transform="translate(164,170)"/>
<path d="M0 0 C1 2 1 2 0 6 C5.61 6 11.22 6 17 6 C17 6.33 17 6.66 17 7 C11.06 7 5.12 7 -1 7 C-1.495 5.515 -1.495 5.515 -2 4 C-4.80232125 4.35180656 -5.7935861 4.7521058 -7.6328125 6.9609375 C-8.12523437 7.75757813 -8.61765625 8.55421875 -9.125 9.375 C-9.62257812 10.16648438 -10.12015625 10.95796875 -10.6328125 11.7734375 C-11.08398438 12.50820312 -11.53515625 13.24296875 -12 14 C-12.99 15.485 -12.99 15.485 -14 17 C-14.33 17.66 -14.66 18.32 -15 19 C-15.598125 19.2475 -16.19625 19.495 -16.8125 19.75 C-20.97079036 22.12616592 -23.03888181 26.75091058 -25 31 C-25.99 30.67 -26.98 30.34 -28 30 C-30.15305957 33.85756507 -31.39253254 36.55129785 -31 41 C-28.24075815 42.80411967 -27.11027897 43.0127245 -23.75 42.625 C-22.8425 42.41875 -21.935 42.2125 -21 42 C-21.226875 42.928125 -21.45375 43.85625 -21.6875 44.8125 C-22.31684251 47.87905296 -22.31684251 47.87905296 -20.9375 49.6875 C-18.40891533 51.40041219 -15.76463187 52.70983846 -13 54 C-12.67 53.34 -12.34 52.68 -12 52 C-8.7 52.66 -5.4 53.32 -2 54 C-2.04125 54.94875 -2.0825 55.8975 -2.125 56.875 C-2.34973818 60.10244856 -2.34973818 60.10244856 0 62 C-4.92818529 61.39122417 -8.81490268 59.25283758 -13.125 56.9375 C-13.87910156 56.534104 -14.63320312 56.13070801 -15.41015625 55.71508789 C-25.2894461 50.3268641 -33.76699529 43.64348092 -42 36 C-40 35 -40 35 -38.16015625 34.67578125 C-26.22476039 30.94192323 -13.66990861 12.00486292 -7 2 C-3.375 0.8125 -3.375 0.8125 0 0 Z " fill="#0F6EE7" transform="translate(114,213)"/>
<path d="M0 0 C8.25 0 16.5 0 25 0 C18.23833314 7.88861133 18.23833314 7.88861133 14.51171875 11.62109375 C13.32932617 12.80541992 13.32932617 12.80541992 12.12304688 14.01367188 C11.31931641 14.81353516 10.51558594 15.61339844 9.6875 16.4375 C8.86443359 17.26443359 8.04136719 18.09136719 7.19335938 18.94335938 C6.41154297 19.72388672 5.62972656 20.50441406 4.82421875 21.30859375 C3.75820435 22.37291626 3.75820435 22.37291626 2.6706543 23.45874023 C1 25 1 25 0 25 C0 16.75 0 8.5 0 0 Z " fill="#8E898A" transform="translate(0,0)"/>
<path d="M0 0 C0.495 1.485 0.495 1.485 1 3 C3.39068734 4.10636395 3.39068734 4.10636395 6 5 C6.99 5.66 7.98 6.32 9 7 C9.33 6.01 9.66 5.02 10 4 C15.625 2.875 15.625 2.875 19 4 C19 5.32 19 6.64 19 8 C21.64 7.34 24.28 6.68 27 6 C27 5.34 27 4.68 27 4 C30.96 4 34.92 4 39 4 C31.37148982 11.62851018 13.75996646 10.41796617 3.9375 10.4375 C-8.56344098 10.35053153 -21.35730642 10.06204069 -33 5 C-31.5625 3.375 -31.5625 3.375 -29 2 C-25.90294753 2.33582497 -22.98189626 3.11435132 -20 4 C-19.34 3.01 -18.68 2.02 -18 1 C-15.375 0.8125 -15.375 0.8125 -13 1 C-13 1.66 -13 2.32 -13 3 C-8.33774127 4.1100616 -5.4025955 3.9453329 -1 2 C-0.67 1.34 -0.34 0.68 0 0 Z " fill="#1588F8" transform="translate(150,272)"/>
<path d="M0 0 C0 7.92 0 15.84 0 24 C-7.92 24 -15.84 24 -24 24 C-17.23832509 16.11137927 -17.23832509 16.11137927 -13.73046875 12.59765625 C-12.61575195 11.48100586 -12.61575195 11.48100586 -11.47851562 10.34179688 C-10.72248047 9.58962891 -9.96644531 8.83746094 -9.1875 8.0625 C-8.41212891 7.28326172 -7.63675781 6.50402344 -6.83789062 5.70117188 C-5.7328418 4.59805664 -5.7328418 4.59805664 -4.60546875 3.47265625 C-3.93668701 2.80500244 -3.26790527 2.13734863 -2.57885742 1.44946289 C-1 0 -1 0 0 0 Z " fill="#8B8687" transform="translate(301,296)"/>
<path d="M0 0 C0.66 0.33 1.32 0.66 2 1 C1.38125 1.7425 1.38125 1.7425 0.75 2.5 C-2.83487781 7.62125401 -5.07132923 13.0762255 -7 19 C-9 22 -9 22 -11.625 22.6875 C-12.40875 22.790625 -13.1925 22.89375 -14 23 C-14 23.99 -14 24.98 -14 26 C-14.66 26.33 -15.32 26.66 -16 27 C-16 28.65 -16 30.3 -16 32 C-21.75 33 -21.75 33 -24 33 C-24.02690844 35.62506802 -24.04679404 38.24986173 -24.0625 40.875 C-24.07087891 41.62136719 -24.07925781 42.36773437 -24.08789062 43.13671875 C-24.20688084 47.19845578 -24.20688084 47.19845578 -23 51 C-27.455 51.495 -27.455 51.495 -32 52 C-33.37004724 47.88985828 -31.81598973 45.44515651 -30.125 41.6875 C-29.80909912 40.97835449 -29.49319824 40.26920898 -29.16772461 39.53857422 C-22.20071892 24.38909299 -11.9964196 11.49656878 0 0 Z " fill="#1072E4" transform="translate(78,70)"/>
<path d="M0 0 C0.69848037 3.6298078 0.89735142 5.47165123 0 9 C-2.86284546 13.07014146 -6.18694252 16.4826632 -9.75952148 19.93286133 C-11.4344641 21.55955155 -13.0558519 23.2287914 -14.67773438 24.90820312 C-22.29733778 32.56696844 -22.29733778 32.56696844 -26.79345703 33.71044922 C-29.28515625 33.71484375 -29.28515625 33.71484375 -33 33 C-29.10451907 28.34165881 -25.06301094 23.91391226 -20.76171875 19.62890625 C-20.19548294 19.06171371 -19.62924713 18.49452118 -19.04585266 17.91014099 C-17.86309421 16.72670827 -16.67909712 15.54451227 -15.49389648 14.36352539 C-13.67117911 12.54622764 -11.85394191 10.72356975 -10.03710938 8.90039062 C-8.88313353 7.74707453 -7.7288481 6.59406809 -6.57421875 5.44140625 C-6.0294841 4.89464737 -5.48474945 4.34788849 -4.92350769 3.78456116 C-1.11498901 0 -1.11498901 0 0 0 Z " fill="#ACA6A6" transform="translate(301,287)"/>
<path d="M0 0 C0.33 0.99 0.66 1.98 1 3 C1.99 3 2.98 3 4 3 C4.06058594 3.63808594 4.12117188 4.27617187 4.18359375 4.93359375 C4.26738281 5.75988281 4.35117187 6.58617187 4.4375 7.4375 C4.51871094 8.26121094 4.59992187 9.08492187 4.68359375 9.93359375 C4.78930815 11.98662025 4.78930815 11.98662025 6 13 C8.41984733 29.9389313 8.41984733 29.9389313 5.0625 34.8125 C4.381875 35.534375 3.70125 36.25625 3 37 C2.21053391 39.68507329 2.21053391 39.68507329 2 42 C1.67 42 1.34 42 1 42 C-0.94312591 33.44804417 -1.27461121 25.24779898 -1.1875 16.5 C-1.18685547 15.23929688 -1.18621094 13.97859375 -1.18554688 12.6796875 C-1.14094751 3.42284254 -1.14094751 3.42284254 0 0 Z " fill="#147AEE" transform="translate(38,147)"/>
<path d="M0 0 C0.99 0 1.98 0 3 0 C3.33 0.66 3.66 1.32 4 2 C5.89533342 2.46523063 5.89533342 2.46523063 8.0625 2.625 C9.361875 2.74875 10.66125 2.8725 12 3 C11.67 4.32 11.34 5.64 11 7 C10.01 7 9.02 7 8 7 C7.34 9.31 6.68 11.62 6 14 C7.98 14 9.96 14 12 14 C11.67 15.32 11.34 16.64 11 18 C4.9453125 18.1953125 4.9453125 18.1953125 3 18 C0.64046906 15.64046906 0.50858587 14.22104383 0 11 C-0.99 11 -1.98 11 -3 11 C-2.53199289 6.94393835 -2.12046792 3.53411321 0 0 Z " fill="#151D66" transform="translate(174,100)"/>
<path d="M0 0 C1.98 0 3.96 0 6 0 C6 0.66 6 1.32 6 2 C6.99 2 7.98 2 9 2 C9.33 2.66 9.66 3.32 10 4 C12.32156597 4.40729228 14.6568787 4.74438677 17 5 C17 5.66 17 6.32 17 7 C22.94 7.33 28.88 7.66 35 8 C35 8.33 35 8.66 35 9 C-0.80049281 9.77164763 -0.80049281 9.77164763 -14 4 C-12.5625 2.375 -12.5625 2.375 -10 1 C-6.90294753 1.33582497 -3.98189626 2.11435132 -1 3 C-0.67 2.01 -0.34 1.02 0 0 Z " fill="#157EEA" transform="translate(131,273)"/>
<path d="M0 0 C1.7015625 0.2784375 1.7015625 0.2784375 3.4375 0.5625 C1.53974267 2.0268449 -0.32713239 3.42398942 -2.39453125 4.640625 C-16.70035706 13.10561069 -28.62950301 26.69319385 -33.20068359 42.81298828 C-33.68280629 44.72259698 -34.1264703 46.64184236 -34.5625 48.5625 C-34.8925 48.5625 -35.2225 48.5625 -35.5625 48.5625 C-36.65516199 42.40312391 -37.74527823 35.88232903 -34.13867188 30.39697266 C-30.55488239 26.24777949 -26.50392199 22.6254013 -22.2800293 19.13964844 C-20.45805021 17.57060273 -20.45805021 17.57060273 -18.96411133 15.36816406 C-18.50157959 14.77229492 -18.03904785 14.17642578 -17.5625 13.5625 C-16.9025 13.5625 -16.2425 13.5625 -15.5625 13.5625 C-15.31757813 13.00046875 -15.07265625 12.4384375 -14.8203125 11.859375 C-11.78310089 6.3131625 -6.75766338 -0.06022873 0 0 Z " fill="#B3AEAE" transform="translate(35.5625,-0.5625)"/>
<path d="M0 0 C5.28 0 10.56 0 16 0 C11.31645873 5.64426769 6.3792354 11.0058046 1 16 C0.67 16 0.34 16 0 16 C0 10.72 0 5.44 0 0 Z " fill="#6A6667" transform="translate(0,0)"/>
<path d="M0 0 C1.34002756 4.02008269 0.24682397 5.36124337 -1.5625 9.125 C-2.05878906 10.20007813 -2.55507812 11.27515625 -3.06640625 12.3828125 C-5 15 -5 15 -8.21484375 15.8671875 C-9.13394531 15.91101563 -10.05304688 15.95484375 -11 16 C-13 13 -13 13 -12.9375 9.5625 C-11.80234459 5.24890946 -10.80616128 4.23405119 -7 2 C-4.67271769 1.15678177 -2.4182978 0.56901125 0 0 Z " fill="#FAFBFD" transform="translate(220,107)"/>
<path d="M0 0 C0.66 0.33 1.32 0.66 2 1 C1.5875 1.495 1.175 1.99 0.75 2.5 C-2.83487781 7.62125401 -5.07132923 13.0762255 -7 19 C-9 22 -9 22 -10.9453125 22.51171875 C-11.66460937 22.56972656 -12.38390625 22.62773438 -13.125 22.6875 C-14.40375 22.790625 -15.6825 22.89375 -17 23 C-17 15.1543501 -9.29282475 9.18460074 -4 3.875 C-2.67172265 2.57813461 -1.34029105 1.28444559 0 0 Z " fill="#157BEC" transform="translate(78,70)"/>
<path d="M0 0 C2.18684792 0.00502947 4.37369698 0.0095898 6.56054688 0.01367188 C11.85288979 0.02455257 17.14518939 0.04117388 22.4375 0.0625 C22.4375 0.3925 22.4375 0.7225 22.4375 1.0625 C21.42961426 1.08755615 20.42172852 1.1126123 19.38330078 1.13842773 C15.59983258 1.23347758 11.81650694 1.33344904 8.03320312 1.43481445 C6.40400557 1.47779822 4.77477346 1.51949424 3.14550781 1.55981445 C-11.13145021 0.73602199 -11.13145021 0.73602199 -23.5625 4.0625 C-24.99299744 4.29753102 -26.4329686 4.47631264 -27.875 4.625 C-29.04482422 4.75068359 -29.04482422 4.75068359 -30.23828125 4.87890625 C-32.34069329 5.04497913 -34.45353897 5.0625 -36.5625 5.0625 C-38.90726551 5.6877708 -41.24310793 6.3488409 -43.5625 7.0625 C-42.9025 5.0825 -42.2425 3.1025 -41.5625 1.0625 C-27.70148485 0.01121993 -13.8952976 -0.05619617 0 0 Z " fill="#2088F2" transform="translate(155.5625,218.9375)"/>
<path d="M0 0 C0 4.95 0 9.9 0 15 C-4.95 15 -9.9 15 -15 15 C-2.5 0 -2.5 0 0 0 Z " fill="#696666" transform="translate(301,305)"/>
<path d="M0 0 C0.33 1.32 0.66 2.64 1 4 C-0.60246607 6.11415845 -2.13313248 7.83393002 -4.01171875 9.67578125 C-4.53635208 10.20519821 -5.06098541 10.73461517 -5.60151672 11.28007507 C-6.71444656 12.39640846 -7.83372 13.50644783 -8.95874023 14.6105957 C-10.68117941 16.30627759 -12.37535206 18.02694189 -14.06835938 19.75195312 C-15.15204627 20.832336 -16.23728316 21.91116684 -17.32421875 22.98828125 C-17.83168137 23.50586502 -18.33914398 24.02344879 -18.86198425 24.55671692 C-20.3269043 25.97387695 -20.3269043 25.97387695 -23 28 C-24.32 27.67 -25.64 27.34 -27 27 C-18.09 18.09 -9.18 9.18 0 0 Z " fill="#9F9999" transform="translate(300,292)"/>
<path d="M0 0 C0.7109375 1.5625 0.7109375 1.5625 1 4 C-0.02006767 6.48156813 -1.07410144 8.67314875 -2.375 11 C-2.9160437 11.98987915 -2.9160437 11.98987915 -3.46801758 12.99975586 C-8.34606868 21.69523008 -14.5050505 29.457478 -21 37 C-21.66 36.67 -22.32 36.34 -23 36 C-23 35.34 -23 34.68 -23 34 C-22.01 33.505 -22.01 33.505 -21 33 C-20.8453125 32.071875 -20.8453125 32.071875 -20.6875 31.125 C-20 29 -20 29 -17.5625 27.5625 C-14.48044576 25.68319863 -13.94159434 24.42397943 -13 21 C-13 20.01 -13 19.02 -13 18 C-11.68 18 -10.36 18 -9 18 C-8.67386719 17.27554688 -8.34773437 16.55109375 -8.01171875 15.8046875 C-1.58394161 1.58394161 -1.58394161 1.58394161 0 0 Z " fill="#3BB4FC" transform="translate(259,208)"/>
<path d="M0 0 C0.33 0 0.66 0 1 0 C1.07347656 0.99580078 1.07347656 0.99580078 1.1484375 2.01171875 C1.54715256 6.72068111 2.02580754 10.65677658 4 15 C4 15.99 4 16.98 4 18 C4.99 18.33 5.98 18.66 7 19 C6.67 19.99 6.34 20.98 6 22 C0.11633105 22 -2.53614484 19.02291161 -6.4609375 15.10546875 C-8 13 -8 13 -8 9 C-7.01 9 -6.02 9 -5 9 C-4.896875 9.639375 -4.79375 10.27875 -4.6875 10.9375 C-4.460625 11.618125 -4.23375 12.29875 -4 13 C-3.01 13.33 -2.02 13.66 -1 14 C-0.67 9.38 -0.34 4.76 0 0 Z " fill="#1D83EF" transform="translate(71,227)"/>
<path d="M0 0 C0 0.33 0 0.66 0 1 C-3.63 1 -7.26 1 -11 1 C-11 1.66 -11 2.32 -11 3 C-13 5 -13 5 -15 7 C-15.4125 7.763125 -15.825 8.52625 -16.25 9.3125 C-18.8305172 13.27543713 -22.37243853 16.01006216 -26 19 C-26 15.07640873 -24.64976012 12.54392914 -23 9 C-22.608125 8.113125 -22.21625 7.22625 -21.8125 6.3125 C-16.22124381 -0.82117169 -8.40217673 -0.5041306 0 0 Z " fill="#36A7FE" transform="translate(101,209)"/>
<path d="M0 0 C1 2 1 2 0 6 C5.61 6 11.22 6 17 6 C17 6.33 17 6.66 17 7 C11.06 7 5.12 7 -1 7 C-1.33 6.01 -1.66 5.02 -2 4 C-4.80232125 4.35180656 -5.7935861 4.7521058 -7.6328125 6.9609375 C-8.12523438 7.75757813 -8.61765625 8.55421875 -9.125 9.375 C-9.87136719 10.56222656 -9.87136719 10.56222656 -10.6328125 11.7734375 C-11.08398438 12.50820312 -11.53515625 13.24296875 -12 14 C-12.99 15.485 -12.99 15.485 -14 17 C-14.33 17.66 -14.66 18.32 -15 19 C-17.9375 20.6875 -17.9375 20.6875 -21 22 C-21.66 21.67 -22.32 21.34 -23 21 C-22.49210937 20.5153125 -21.98421875 20.030625 -21.4609375 19.53125 C-15.8991126 14.11524073 -11.29944528 8.44916792 -7 2 C-3.375 0.8125 -3.375 0.8125 0 0 Z " fill="#126DD5" transform="translate(114,213)"/>
<path d="M0 0 C0 5.46749843 -5.11460819 8.92836187 -8.75 12.6875 C-9.55566406 13.58017578 -10.36132812 14.47285156 -11.19140625 15.39257812 C-17.31614535 21.70539977 -17.31614535 21.70539977 -22.31835938 22.58056641 C-25.27367138 22.58186945 -28.07730052 22.42252479 -31 22 C-27.76624482 19.84416321 -24.40510006 18.11056381 -20.9375 16.375 C-20.30005859 16.05015625 -19.66261719 15.7253125 -19.00585938 15.390625 C-14.23967634 13 -14.23967634 13 -12 13 C-12 12.34 -12 11.68 -12 11 C-10.390625 9.4140625 -10.390625 9.4140625 -8.25 7.625 C-5.3756268 5.18382134 -2.61456008 2.72350008 0 0 Z " fill="#C2BDBD" transform="translate(284,298)"/>
<path d="M0 0 C0.4125 0.515625 0.825 1.03125 1.25 1.5625 C2.11625 2.2740625 2.11625 2.2740625 3 3 C5.01954441 2.66179847 5.01954441 2.66179847 7 2 C7.99 2.33 8.98 2.66 10 3 C9.835 4.03125 9.67 5.0625 9.5 6.125 C8.87596259 10.96128992 8.55383948 15.29997832 10 20 C6.45628571 16.86458323 4.68563522 13.73402362 2.75 9.4375 C1.96882813 7.73400391 1.96882813 7.73400391 1.171875 5.99609375 C0 3 0 3 0 0 Z " fill="#0F71E6" transform="translate(44,205)"/>
<path d="M0 0 C0 0.66 0 1.32 0 2 C-1.01320312 2.48919922 -1.01320312 2.48919922 -2.046875 2.98828125 C-2.93890625 3.42527344 -3.8309375 3.86226562 -4.75 4.3125 C-5.63171875 4.74175781 -6.5134375 5.17101562 -7.421875 5.61328125 C-9.85121644 6.91997248 -11.95789632 8.14397586 -14 10 C-14 10.99 -14 11.98 -14 13 C-16.97 12.505 -16.97 12.505 -20 12 C-20.33 12.99 -20.66 13.98 -21 15 C-22.66666667 16.33333333 -24.33333333 17.66666667 -26 19 C-26.33 19.99 -26.66 20.98 -27 22 C-27.99 22 -28.98 22 -30 22 C-30 22.66 -30 23.32 -30 24 C-30.99 24.33 -31.98 24.66 -33 25 C-32.30349209 19.16004909 -26.91596427 15.80477195 -22.65283203 12.28271484 C-6.8260373 0 -6.8260373 0 0 0 Z " fill="#1E77D7" transform="translate(164,170)"/>
<path d="M0 0 C0.66 0.33 1.32 0.66 2 1 C1.03900391 1.94359375 1.03900391 1.94359375 0.05859375 2.90625 C-5.80227804 8.69510013 -5.80227804 8.69510013 -11.3125 14.8125 C-16.49857945 20.88797955 -22.31766873 26.39457246 -28 32 C-28.33 31.01 -28.66 30.02 -29 29 C-19.43 19.43 -9.86 9.86 0 0 Z " fill="#ABA5A6" transform="translate(29,0)"/>
<path d="M0 0 C2.97 0.495 2.97 0.495 6 1 C3.76684516 4.40849949 1.50292196 5.98581987 -2 8 C-3.75149165 9.58245275 -3.75149165 9.58245275 -5 11 C-5.66 10.67 -6.32 10.34 -7 10 C-6.65652573 6.79424013 -6.0292146 6.02483241 -3.5 3.875 C-2.675 3.25625 -1.85 2.6375 -1 2 C-0.67 1.34 -0.34 0.68 0 0 Z M-10 10 C-9.01 10 -8.02 10 -7 10 C-7 10.66 -7 11.32 -7 12 C-8.32267727 13.01405257 -9.65724831 14.01268258 -11 15 C-11.66 15.99 -12.32 16.98 -13 18 C-13.33 16.68 -13.66 15.36 -14 14 C-12.68 13.34 -11.36 12.68 -10 12 C-10 11.34 -10 10.68 -10 10 Z " fill="#127CEF" transform="translate(144,182)"/>
<path d="M0 0 C3.96 0 7.92 0 12 0 C7.1794313 4.8205687 -3.83634639 5.8632347 -10.51220703 6.08251953 C-15.36941023 5.98901909 -20.176477 5.56172673 -25 5 C-25 4.67 -25 4.34 -25 4 C-21.7 4 -18.4 4 -15 4 C-15 3.34 -15 2.68 -15 2 C-12.69 2 -10.38 2 -8 2 C-8 2.66 -8 3.32 -8 4 C-5.36 3.34 -2.72 2.68 0 2 C0 1.34 0 0.68 0 0 Z " fill="#1A8AF6" transform="translate(177,276)"/>
<path d="M0 0 C5.28 0 10.56 0 16 0 C16 2.64 16 5.28 16 8 C10.72 5.69 5.44 3.38 0 1 C0 0.67 0 0.34 0 0 Z " fill="#A09B9B" transform="translate(266,0)"/>
<path d="M0 0 C3.3 0 6.6 0 10 0 C11.14947895 3.55293493 11.0868937 4.79976669 9.5625 8.3125 C8.7890625 9.6428125 8.7890625 9.6428125 8 11 C4.31993178 7.61831569 2.0214155 4.57478244 0 0 Z " fill="#0C71E6" transform="translate(54,226)"/>
<path d="M0 0 C0 0.33 0 0.66 0 1 C-3.3 1 -6.6 1 -10 1 C-10 1.99 -10 2.98 -10 4 C-12.24973447 4.054138 -14.49984383 4.09285491 -16.75 4.125 C-18.00296875 4.14820313 -19.2559375 4.17140625 -20.546875 4.1953125 C-23.72820492 4.01537302 -25.36521896 3.68998582 -28 2 C-23.75754335 -2.24245665 -5.67754505 -0.09515439 0 0 Z " fill="#30B3FE" transform="translate(255,162)"/>
<path d="M0 0 C1.32 0.33 2.64 0.66 4 1 C-0.95 5.95 -5.9 10.9 -11 16 C-11.33 14.68 -11.66 13.36 -12 12 C-10.16979686 9.66057503 -8.42984657 7.73208552 -6.3125 5.6875 C-5.76916016 5.12482422 -5.22582031 4.56214844 -4.66601562 3.98242188 C-3.05078125 2.38671875 -3.05078125 2.38671875 0 0 Z " fill="#797575" transform="translate(12,0)"/>
<path d="M0 0 C0.33 0 0.66 0 1 0 C2.22690583 12.13273543 2.22690583 12.13273543 -0.78125 16.7109375 C-2.76726633 18.64800272 -4.74857026 20.38178487 -7 22 C-7 18.47382502 -6.03902458 16.47037968 -4.625 13.25 C-2.74546225 8.86263709 -1.15649579 4.62598315 0 0 Z " fill="#C4BEBF" transform="translate(300,267)"/>
<path d="M0 0 C0.66 0.33 1.32 0.66 2 1 C2.63463179 10.07876031 2.63463179 10.07876031 0.0625 13.8125 C-0.618125 14.534375 -1.29875 15.25625 -2 16 C-2.78946609 18.68507329 -2.78946609 18.68507329 -3 21 C-3.33 21 -3.66 21 -4 21 C-5.32286246 16.03926578 -5.08893197 11.08888488 -5 6 C-4.67 6 -4.34 6 -4 6 C-3.67 8.31 -3.34 10.62 -3 13 C-1.4523445 9.90468901 -1.55590549 6.6333237 -1.28125 3.21484375 C-1 1 -1 1 0 0 Z " fill="#0D6DEA" transform="translate(43,168)"/>
<path d="M0 0 C0.33 1.65 0.66 3.3 1 5 C0.07767578 5.09087891 0.07767578 5.09087891 -0.86328125 5.18359375 C-1.67152344 5.26738281 -2.47976562 5.35117188 -3.3125 5.4375 C-4.11300781 5.51871094 -4.91351563 5.59992188 -5.73828125 5.68359375 C-9.53026793 6.21407893 -11.4623606 7.22068065 -14 10 C-14.33 8.68 -14.66 7.36 -15 6 C-13.07010782 4.80017556 -11.13080772 3.61547182 -9.1875 2.4375 C-8.10855469 1.77621094 -7.02960938 1.11492187 -5.91796875 0.43359375 C-3 -1 -3 -1 0 0 Z " fill="#1989F0" transform="translate(164,173)"/>
<path d="M0 0 C0.33 1.32 0.66 2.64 1 4 C-0.66932344 6.18064774 -2.23010599 7.92860014 -4.1875 9.8125 C-4.68314453 10.32748047 -5.17878906 10.84246094 -5.68945312 11.37304688 C-7.16796875 12.83203125 -7.16796875 12.83203125 -10 15 C-11.32 14.67 -12.64 14.34 -14 14 C-9.38 9.38 -4.76 4.76 0 0 Z " fill="#767272" transform="translate(300,305)"/>
<path d="M0 0 C0.33 0.66 0.66 1.32 1 2 C-0.6209213 3.17232685 -2.24686833 4.3377077 -3.875 5.5 C-4.77992188 6.1496875 -5.68484375 6.799375 -6.6171875 7.46875 C-9 9 -9 9 -11 9 C-10.67470941 6.07238473 -10.40430823 3.67384706 -8.875 1.125 C-5.98014 -0.611916 -3.29140103 -0.18630572 0 0 Z " fill="#2BA7F8" transform="translate(223,256)"/>
<path d="M0 0 C0 0.99 0 1.98 0 3 C-0.99 3 -1.98 3 -3 3 C-3.33 3.99 -3.66 4.98 -4 6 C-5.32 6 -6.64 6 -8 6 C-10.26877535 8.41880929 -10.26877535 8.41880929 -12 11 C-12.99 10.01 -13.98 9.02 -15 8 C-13 5 -13 5 -9.875 4.3125 C-8.92625 4.209375 -7.9775 4.10625 -7 4 C-6.67 3.01 -6.34 2.02 -6 1 C-4 0 -4 0 0 0 Z " fill="#1F95FD" transform="translate(103,56)"/>
<path d="M0 0 C0.81720493 3.26881973 1.11073543 5.46999069 1.0625 8.75 C1.05347656 9.54921875 1.04445312 10.3484375 1.03515625 11.171875 C1.01775391 12.07679688 1.01775391 12.07679688 1 13 C-0.32 12.67 -1.64 12.34 -3 12 C-3 10.68 -3 9.36 -3 8 C-3.99 7.67 -4.98 7.34 -6 7 C-4.02 4.69 -2.04 2.38 0 0 Z " fill="#1375DE" transform="translate(130,194)"/>
<path d="M0 0 C3.6765577 0.85348661 4.06814095 1.27931349 6.5 3.8125 C8.80988315 4.55636068 11.14315944 5.23440703 13.5 5.8125 C9.69102829 7.20693927 6.8129737 6.43029005 2.9375 5.5 C1.23400391 5.10361328 1.23400391 5.10361328 -0.50390625 4.69921875 C-3.5 3.8125 -3.5 3.8125 -6.5 1.8125 C-3.5 -0.1875 -3.5 -0.1875 0 0 Z " fill="#1475DF" transform="translate(123.5,274.1875)"/>
<path d="M0 0 C1.18284261 3.501272 1.02089921 3.95195761 -0.58203125 7.63671875 C-1.31297708 8.99381055 -2.05698292 10.3439324 -2.8125 11.6875 C-3.18181641 12.37650391 -3.55113281 13.06550781 -3.93164062 13.77539062 C-6.71507913 18.85753956 -6.71507913 18.85753956 -9 20 C-7.19679457 12.93744538 -4.85858119 5.58736837 0 0 Z " fill="#4FB9FD" transform="translate(259,208)"/>
<path d="M0 0 C1 2 1 2 0.07421875 4.8984375 C-0.61220703 6.61933594 -0.61220703 6.61933594 -1.3125 8.375 C-1.76238281 9.51710938 -2.21226563 10.65921875 -2.67578125 11.8359375 C-3.70143036 14.28660351 -4.76698428 16.64974468 -6 19 C-6.92017937 7.51479821 -6.92017937 7.51479821 -4.6640625 3.80078125 C-3 2.1875 -3 2.1875 0 0 Z " fill="#B9B3B3" transform="translate(6,29)"/>
<path d="M0 0 C0.33 0.99 0.66 1.98 1 3 C-3.95 7.95 -8.9 12.9 -14 18 C-14 13.73187416 -11.48608073 11.92209942 -8.6875 9 C-8.18798828 8.46632813 -7.68847656 7.93265625 -7.17382812 7.3828125 C-4.82392043 4.88039424 -2.44823734 2.40645854 0 0 Z " fill="#BDB8B8" transform="translate(300,281)"/>
<path d="M0 0 C0.99 0 1.98 0 3 0 C3.103125 0.639375 3.20625 1.27875 3.3125 1.9375 C3.539375 2.618125 3.76625 3.29875 4 4 C4.99 4.33 5.98 4.66 7 5 C7.33 4.01 7.66 3.02 8 2 C8.33 5.3 8.66 8.6 9 12 C2.25 6.25 2.25 6.25 0 4 C0 2.68 0 1.36 0 0 Z " fill="#166CD6" transform="translate(63,236)"/>
<path d="M0 0 C1.58873246 3.17746491 1.41026221 6.54012202 1 10 C-0.5 12.5 -0.5 12.5 -2 14 C-1.125 9.25 -1.125 9.25 0 7 C-1.32 7.33 -2.64 7.66 -4 8 C-4 7.34 -4 6.68 -4 6 C-4.66 6 -5.32 6 -6 6 C-6 5.34 -6 4.68 -6 4 C-4.03852126 2.61061923 -2.03833424 1.2739589 0 0 Z " fill="#21A1FE" transform="translate(112,46)"/>
<path d="M0 0 C1 2 1 2 0 6 C5.61 6 11.22 6 17 6 C17 6.33 17 6.66 17 7 C11.06 7 5.12 7 -1 7 C-1.33 6.01 -1.66 5.02 -2 4 C-3.65 4.33 -5.3 4.66 -7 5 C-7 4.01 -7 3.02 -7 2 C-4.69 1.34 -2.38 0.68 0 0 Z " fill="#1972D0" transform="translate(114,213)"/>
<path d="M0 0 C0.66 0.33 1.32 0.66 2 1 C2.6328125 3.50390625 2.6328125 3.50390625 3.125 6.5625 C3.29257812 7.57441406 3.46015625 8.58632812 3.6328125 9.62890625 C3.75398438 10.41136719 3.87515625 11.19382813 4 12 C3.01 12.33 2.02 12.66 1 13 C0.63447197 11.58622218 0.28304505 10.16879424 -0.0625 8.75 C-0.25972656 7.96109375 -0.45695312 7.1721875 -0.66015625 6.359375 C-1.01497267 3.89605178 -0.76877544 2.34395868 0 0 Z " fill="#0D70EA" transform="translate(41,188)"/>
<path d="M0 0 C1.32 0 2.64 0 4 0 C4 5.28 4 10.56 4 16 C1.64528444 12.46792666 0.52451323 9.19610585 0 5 C0.66 4.01 1.32 3.02 2 2 C1.34 2 0.68 2 0 2 C0 1.34 0 0.68 0 0 Z " fill="#3CB7FE" transform="translate(264,162)"/>
<path d="M0 0 C0.66 0 1.32 0 2 0 C0.43795274 4.21752761 -2.45134252 6.37399346 -6 9 C-8.375 9.8125 -8.375 9.8125 -10 10 C-9.75 8.1328125 -9.75 8.1328125 -9 6 C-7.1875 4.8046875 -7.1875 4.8046875 -5 3.875 C-1.84237802 2.66200212 -1.84237802 2.66200212 0 0 Z " fill="#62C0FF" transform="translate(98,224)"/>
<path d="M0 0 C0.99 0.33 1.98 0.66 3 1 C2.53439347 5.74918662 1.83067342 9.10782405 -1 13 C-1.33 13 -1.66 13 -2 13 C-2.19294408 8.17639811 -1.75747614 4.50353262 0 0 Z " fill="#0F71EA" transform="translate(42,128)"/>
<path d="M0 0 C2.125 0.375 2.125 0.375 4 1 C3.67 2.65 3.34 4.3 3 6 C1.68 6.33 0.36 6.66 -1 7 C-1.625 4.625 -1.625 4.625 -2 2 C-1.34 1.34 -0.68 0.68 0 0 Z " fill="#F8F8FC" transform="translate(194,107)"/>
<path d="M0 0 C3.96 0 7.92 0 12 0 C9.48115349 2.51884651 7.56355758 2.8257588 4.125 3.6875 C3.07570312 3.95949219 2.02640625 4.23148437 0.9453125 4.51171875 C-1.85166838 4.97540921 -3.372192 4.94575698 -6 4 C-4.02 3.34 -2.04 2.68 0 2 C0 1.34 0 0.68 0 0 Z " fill="#208AE6" transform="translate(177,276)"/>
<path d="M0 0 C0.99 0.33 1.98 0.66 3 1 C2.67 4.63 2.34 8.26 2 12 C1.34 12 0.68 12 0 12 C-0.66 10.02 -1.32 8.04 -2 6 C-1.34 5.34 -0.68 4.68 0 4 C0 2.68 0 1.36 0 0 Z " fill="#0771EB" transform="translate(51,106)"/>
<path d="M0 0 C0.66 0.33 1.32 0.66 2 1 C1.27683594 1.88751953 1.27683594 1.88751953 0.5390625 2.79296875 C-0.09257813 3.58316406 -0.72421875 4.37335938 -1.375 5.1875 C-2.00148438 5.96480469 -2.62796875 6.74210938 -3.2734375 7.54296875 C-4.97821615 9.96899991 -5.91208376 12.26128911 -7 15 C-7.99 15.495 -7.99 15.495 -9 16 C-7.34910311 10.37194242 -5.611032 5.65939612 -2 1 C-1.34 0.67 -0.68 0.34 0 0 Z " fill="#299CFE" transform="translate(83,212)"/>
<path d="M0 0 C0.33 0 0.66 0 1 0 C1 2.31 1 4.62 1 7 C-1.31 7 -3.62 7 -6 7 C-5.02433888 5.83040013 -4.044375 4.66438823 -3.0625 3.5 C-2.51722656 2.8503125 -1.97195313 2.200625 -1.41015625 1.53125 C-0.71212891 0.77328125 -0.71212891 0.77328125 0 0 Z " fill="#5A5758" transform="translate(300,313)"/>
<path d="M0 0 C0.99 0.33 1.98 0.66 3 1 C1.02 3.31 -0.96 5.62 -3 8 C-3.66 6.68 -4.32 5.36 -5 4 C-2.6875 1.9375 -2.6875 1.9375 0 0 Z " fill="#34AFFA" transform="translate(232,246)"/>
<path d="M0 0 C0.66 0.66 1.32 1.32 2 2 C1 3 1 3 -1.31665039 3.11352539 C-2.31688232 3.10828857 -3.31711426 3.10305176 -4.34765625 3.09765625 C-5.42724609 3.09443359 -6.50683594 3.09121094 -7.61914062 3.08789062 C-8.75544922 3.07951172 -9.89175781 3.07113281 -11.0625 3.0625 C-12.20267578 3.05798828 -13.34285156 3.05347656 -14.51757812 3.04882812 C-17.34510351 3.03699747 -20.1725264 3.0205141 -23 3 C-23 2.67 -23 2.34 -23 2 C-22.00818726 1.96241577 -22.00818726 1.96241577 -20.99633789 1.92407227 C-18.01817695 1.80846898 -15.0403608 1.68558246 -12.0625 1.5625 C-10.50112305 1.50352539 -10.50112305 1.50352539 -8.90820312 1.44335938 C-7.42416992 1.38051758 -7.42416992 1.38051758 -5.91015625 1.31640625 C-4.53549194 1.26141968 -4.53549194 1.26141968 -3.13305664 1.20532227 C-1.0179272 1.22996136 -1.0179272 1.22996136 0 0 Z " fill="#399FF7" transform="translate(201,217)"/>
<path d="M0 0 C0.66 1.32 1.32 2.64 2 4 C1.01 5.485 1.01 5.485 0 7 C-3.625 7.1875 -3.625 7.1875 -7 7 C-4.66666667 4.66666667 -2.33333333 2.33333333 0 0 Z " fill="#1A81E8" transform="translate(88,62)"/>
<path d="M0 0 C0.99 0.33 1.98 0.66 3 1 C3 2.65 3 4.3 3 6 C0.69 6 -1.62 6 -4 6 C-4 5.01 -4 4.02 -4 3 C-2.68 3 -1.36 3 0 3 C0 2.01 0 1.02 0 0 Z " fill="#0268F3" transform="translate(80,247)"/>
<path d="M0 0 C-1.75864246 2.1793144 -2.69396 2.93686419 -5.48046875 3.51171875 C-6.37378906 3.56972656 -7.26710937 3.62773437 -8.1875 3.6875 C-9.08855469 3.75324219 -9.98960937 3.81898438 -10.91796875 3.88671875 C-11.94857422 3.94279297 -11.94857422 3.94279297 -13 4 C-8.61350163 0.52105302 -5.57581513 -0.123907 0 0 Z " fill="#2D8AE4" transform="translate(184,164)"/>
<path d="M0 0 C0.66 0 1.32 0 2 0 C1.8125 2.8125 1.8125 2.8125 1 6 C-1.5625 7.875 -1.5625 7.875 -4 9 C-4.33 8.34 -4.66 7.68 -5 7 C-4.67 6.34 -4.34 5.68 -4 5 C-3.01 5 -2.02 5 -1 5 C-0.67 3.35 -0.34 1.7 0 0 Z " fill="#0C7AF2" transform="translate(68,82)"/>
<path d="M0 0 C0.66 0 1.32 0 2 0 C0.87548273 2.9719385 -0.22293791 5.33440687 -2 8 C-6 3.25 -6 3.25 -6 1 C-5.34 1 -4.68 1 -4 1 C-4 1.66 -4 2.32 -4 3 C-3.01 2.67 -2.02 2.34 -1 2 C-0.67 1.34 -0.34 0.68 0 0 Z " fill="#1672DB" transform="translate(63,229)"/>
<path d="M0 0 C0.66 0.99 1.32 1.98 2 3 C1.67 3.99 1.34 4.98 1 6 C0.01 6 -0.98 6 -2 6 C-2.33 6.99 -2.66 7.98 -3 9 C-3.66 8.67 -4.32 8.34 -5 8 C-3.35 5.36 -1.7 2.72 0 0 Z " fill="#1971DC" transform="translate(56,97)"/>
<path d="M0 0 C2.97 0.495 2.97 0.495 6 1 C6 1.66 6 2.32 6 3 C7.65 3 9.3 3 11 3 C11 3.33 11 3.66 11 4 C6.83861737 4.08159574 3.0527516 3.98248524 -1 3 C-0.67 2.01 -0.34 1.02 0 0 Z " fill="#0C80F5" transform="translate(130,276)"/>
<path d="M0 0 C0.33 0.99 0.66 1.98 1 3 C0.01 3 -0.98 3 -2 3 C-2 3.99 -2 4.98 -2 6 C-3.32 6 -4.64 6 -6 6 C-6.33 6.66 -6.66 7.32 -7 8 C-7.99 6.68 -8.98 5.36 -10 4 C-9.278125 4.0825 -8.55625 4.165 -7.8125 4.25 C-4.16451206 3.92573441 -2.65431702 2.42680413 0 0 Z " fill="#1067E0" transform="translate(82,244)"/>
<path d="M0 0 C1.32 0 2.64 0 4 0 C4.33 0.99 4.66 1.98 5 3 C4.67 3.66 4.34 4.32 4 5 C2.35 4.67 0.7 4.34 -1 4 C-0.67 2.68 -0.34 1.36 0 0 Z " fill="#20276A" transform="translate(248,113)"/>
<path d="M0 0 C0.66 0.33 1.32 0.66 2 1 C-0.50123051 5.16871752 -2.49415979 7.98422938 -7 10 C-7.66 9.67 -8.32 9.34 -9 9 C-6.03 6.03 -3.06 3.06 0 0 Z " fill="#2079D3" transform="translate(78,70)"/>
<path d="M0 0 C0 1.65 0 3.3 0 5 C-0.99 5 -1.98 5 -3 5 C-3 5.66 -3 6.32 -3 7 C-3.99 7.33 -4.98 7.66 -6 8 C-5.57004265 4.99029853 -3.66008917 0 0 0 Z " fill="#267ED9" transform="translate(137,187)"/>
<path d="M0 0 C2.64 0 5.28 0 8 0 C8 0.99 8 1.98 8 3 C5.03 2.67 2.06 2.34 -1 2 C-0.67 1.34 -0.34 0.68 0 0 Z " fill="#26ADFF" transform="translate(228,163)"/>
<path d="M0 0 C0.99 0 1.98 0 3 0 C3 2.64 3 5.28 3 8 C2.01 7.67 1.02 7.34 0 7 C0 4.69 0 2.38 0 0 Z " fill="#989393" transform="translate(279,0)"/>
<path d="M0 0 C0.33 0 0.66 0 1 0 C1.10836453 1.43583001 1.18576167 2.8740202 1.25 4.3125 C1.29640625 5.11300781 1.3428125 5.91351563 1.390625 6.73828125 C1 9 1 9 -3 12 C-2.01 8.04 -1.02 4.08 0 0 Z " fill="#D1CBCC" transform="translate(300,267)"/>
<path d="M0 0 C1.5 1.3125 1.5 1.3125 3 3 C3 3.99 3 4.98 3 6 C3.66 6 4.32 6 5 6 C5 6.66 5 7.32 5 8 C3.68 7.67 2.36 7.34 1 7 C1 5.68 1 4.36 1 3 C0.01 2.67 -0.98 2.34 -2 2 C-1.34 1.34 -0.68 0.68 0 0 Z " fill="#126DD2" transform="translate(126,199)"/>
<path d="M0 0 C1.32 0 2.64 0 4 0 C4 0.99 4 1.98 4 3 C4.99 3.33 5.98 3.66 7 4 C6.34 4.66 5.68 5.32 5 6 C2.875 5.625 2.875 5.625 1 5 C0.67 3.35 0.34 1.7 0 0 Z " fill="#31A1FD" transform="translate(182,163)"/>
<path d="M0 0 C1.98 0 3.96 0 6 0 C4.35830472 2.02054804 2.69088222 4.02043058 1 6 C0.67 6 0.34 6 0 6 C0 4.02 0 2.04 0 0 Z " fill="#585556" transform="translate(0,0)"/>
<path d="M0 0 C0.33 0 0.66 0 1 0 C1.144375 1.093125 1.28875 2.18625 1.4375 3.3125 C1.88288104 6.93122987 1.88288104 6.93122987 3 10 C2.5625 12.6875 2.5625 12.6875 2 15 C1.67 15 1.34 15 1 15 C-0.32286246 10.03926578 -0.08893197 5.08888488 0 0 Z " fill="#1072E0" transform="translate(38,174)"/>
<path d="M0 0 C2.35953094 2.35953094 2.49141413 3.77895617 3 7 C2.01 7.33 1.02 7.66 0 8 C-0.38063221 5.6739143 -0.71269945 3.33944736 -1 1 C-0.67 0.67 -0.34 0.34 0 0 Z " fill="#147EF2" transform="translate(39,142)"/>
<path d="M0 0 C0 2.62113708 -0.31292445 4.50935112 -1 7 C-1.99 7 -2.98 7 -4 7 C-4.33 7.99 -4.66 8.98 -5 10 C-5.66 9.67 -6.32 9.34 -7 9 C-4.69 6.03 -2.38 3.06 0 0 Z " fill="#2479D3" transform="translate(68,80)"/>
<path d="M0 0 C1.40907283 2.81814566 0.50872691 4.17277204 -0.4375 7.125 C-0.72496094 8.03507812 -1.01242188 8.94515625 -1.30859375 9.8828125 C-1.53675781 10.58148438 -1.76492187 11.28015625 -2 12 C-2.33 12 -2.66 12 -3 12 C-3.08131463 10.56344146 -3.13933559 9.1255517 -3.1875 7.6875 C-3.22230469 6.88699219 -3.25710937 6.08648437 -3.29296875 5.26171875 C-2.93801608 2.52148416 -2.10633718 1.70828921 0 0 Z " fill="#C5BFBF" transform="translate(3,36)"/>
<path d="M0 0 C0.94875 0.04125 1.8975 0.0825 2.875 0.125 C-0.24932397 2.64849243 -3.50560496 4.39756146 -7.125 6.125 C-4.34782609 0.17391304 -4.34782609 0.17391304 0 0 Z " fill="#B9B3B3" transform="translate(36.125,-0.125)"/>
<path d="M0 0 C0.66 0.33 1.32 0.66 2 1 C2 1.66 2 2.32 2 3 C0.68 3.33 -0.64 3.66 -2 4 C-1.34 2.68 -0.68 1.36 0 0 Z M-2 4 C-2 4.99 -2 5.98 -2 7 C-3.65 7 -5.3 7 -7 7 C-4.25 4 -4.25 4 -2 4 Z " fill="#198AF9" transform="translate(138,239)"/>
<path d="M0 0 C0.7425 0.0825 1.485 0.165 2.25 0.25 C0.72058649 3.30882701 -1.69219546 3.93951234 -4.75 5.25 C-5.41 4.92 -6.07 4.59 -6.75 4.25 C-3.42692308 0.31153846 -3.42692308 0.31153846 0 0 Z " fill="#0C6FDF" transform="translate(97.75,229.75)"/>
<path d="M0 0 C-0.33 0.66 -0.66 1.32 -1 2 C-3.06640625 2.6328125 -3.06640625 2.6328125 -5.5625 3.125 C-6.38878906 3.29257813 -7.21507812 3.46015625 -8.06640625 3.6328125 C-8.70449219 3.75398437 -9.34257812 3.87515625 -10 4 C-4.63711911 -1.54570637 -4.63711911 -1.54570637 0 0 Z " fill="#128BFB" transform="translate(164,173)"/>
<path d="M0 0 C2.64 0 5.28 0 8 0 C7.67 1.32 7.34 2.64 7 4 C4.69 3.01 2.38 2.02 0 1 C0 0.67 0 0.34 0 0 Z " fill="#ACA7A7" transform="translate(266,0)"/>
<path d="M0 0 C0.66 0.33 1.32 0.66 2 1 C0.9375 2.5 0.9375 2.5 -1 4 C-4.6875 4.1875 -4.6875 4.1875 -8 4 C-5.31143836 2.20762558 -3.0466145 1.01553817 0 0 Z " fill="#CEC7C8" transform="translate(261,316)"/>
<path d="M0 0 C0.33 0 0.66 0 1 0 C1.33 3.3 1.66 6.6 2 10 C1.01 9.34 0.02 8.68 -1 8 C-0.67 5.36 -0.34 2.72 0 0 Z " fill="#1679E3" transform="translate(70,238)"/>
<path d="M0 0 C0.99 0.33 1.98 0.66 3 1 C2.60196439 3.88575819 2.20990931 4.82189513 -0.0625 6.75 C-0.701875 7.1625 -1.34125 7.575 -2 8 C-1.67 7.05125 -1.34 6.1025 -1 5.125 C0.10159191 2.22937548 0.10159191 2.22937548 0 0 Z " fill="#6BC9FE" transform="translate(102,216)"/>
<path d="M0 0 C0.99 0 1.98 0 3 0 C2.67 1.65 2.34 3.3 2 5 C1.01 5 0.02 5 -1 5 C-0.67 3.35 -0.34 1.7 0 0 Z " fill="#F3F4FB" transform="translate(166,95)"/>
<path d="M0 0 C0.33 0.66 0.66 1.32 1 2 C0.67 2.99 0.34 3.98 0 5 C-1.98 5.33 -3.96 5.66 -6 6 C-6 5.34 -6 4.68 -6 4 C-4.03852126 2.61061923 -2.03833424 1.2739589 0 0 Z " fill="#2B9EF4" transform="translate(112,46)"/>
</svg>
